<svg viewBox="0 0 12 12" fill="none" xmlns="http://www.w3.org/2000/svg"><path d="M6 1L6 11" stroke="#C9D5FF"></path><circle cx="6" cy="6" r="5" stroke="#C9D5FF"></circle><path d="M3.29726 5.97638L3.79713 5.96484L3.29726 5.97638ZM5.27127 0.662528C4.83182 1.03501 4.20596 1.72862 3.69438 2.63698C3.18156 3.54753 2.76773 4.70238 2.7974 5.98791L3.79713 5.96484C3.77274 4.90804 4.11342 3.93075 4.56569 3.12771C5.0192 2.32248 5.56902 1.72105 5.91786 1.42536L5.27127 0.662528ZM2.7974 5.98791C2.86976 9.12363 4.66528 10.7992 5.15092 11.2849L5.85802 10.5778C5.39772 10.1175 3.8599 8.68498 3.79713 5.96484L2.7974 5.98791Z" fill="#C9D5FF"></path><path d="M8.70274 6.00214L8.20287 6.01367L8.70274 6.00214ZM6.72873 11.316C7.16818 10.9435 7.79404 10.2499 8.30562 9.34153C8.81844 8.43099 9.23227 7.27614 9.2026 5.9906L8.20287 6.01367C8.22726 7.07048 7.88658 8.04776 7.43431 8.85081C6.9808 9.65604 6.43099 10.2575 6.08214 10.5532L6.72873 11.316ZM9.2026 5.9906C9.13024 2.85488 7.33473 1.17927 6.84909 0.693628L6.14198 1.40074C6.60228 1.86104 8.1401 3.29353 8.20287 6.01367L9.2026 5.9906Z" fill="#C9D5FF"></path></svg>